<?xml version="1.0" encoding="UTF-8" standalone="no"?>
<!-- Created with Inkscape (http://www.inkscape.org/) -->

<svg
   xmlns:dc="http://purl.org/dc/elements/1.1/"
   xmlns:cc="http://creativecommons.org/ns#"
   xmlns:rdf="http://www.w3.org/1999/02/22-rdf-syntax-ns#"
   xmlns:svg="http://www.w3.org/2000/svg"
   xmlns="http://www.w3.org/2000/svg"
   xmlns:sodipodi="http://sodipodi.sourceforge.net/DTD/sodipodi-0.dtd"
   xmlns:inkscape="http://www.inkscape.org/namespaces/inkscape"
   width="100"
   height="100"
   id="svg2"
   version="1.1"
   inkscape:version="0.48.4 r9939"
   sodipodi:docname="rice.svg">
  <defs
     id="defs4" />
  <sodipodi:namedview
     id="base"
     pagecolor="#ffffff"
     bordercolor="#666666"
     borderopacity="1.0"
     inkscape:pageopacity="0.0"
     inkscape:pageshadow="2"
     inkscape:zoom="2.8284271"
     inkscape:cx="34.260078"
     inkscape:cy="18.477902"
     inkscape:document-units="px"
     inkscape:current-layer="layer1"
     showgrid="false"
     inkscape:window-width="1317"
     inkscape:window-height="744"
     inkscape:window-x="49"
     inkscape:window-y="24"
     inkscape:window-maximized="1" />
  <metadata
     id="metadata7">
    <rdf:RDF>
      <cc:Work
         rdf:about="">
        <dc:format>image/svg+xml</dc:format>
        <dc:type
           rdf:resource="http://purl.org/dc/dcmitype/StillImage" />
        <dc:title></dc:title>
      </cc:Work>
    </rdf:RDF>
  </metadata>
  <g
     inkscape:label="Layer 1"
     inkscape:groupmode="layer"
     id="layer1"
     transform="translate(0,-952.36218)">
    <rect
       style="fill:#87aade;fill-rule:evenodd;stroke:none"
       id="rect2985"
       width="106.07143"
       height="103.92857"
       x="-1.25"
       y="-1.4285717"
       transform="translate(0,952.36218)" />
    <g
       id="g5082"
       transform="translate(0.02802282,0.85009248)">
      <path
         transform="matrix(0.87892575,0,0,0.87892575,-29.901017,926.54158)"
         d="M 42,33.5 C 42,34.328427 41.328427,35 40.5,35 39.671573,35 39,34.328427 39,33.5 39,32.671573 39.671573,32 40.5,32 c 0.828427,0 1.5,0.671573 1.5,1.5 z"
         sodipodi:ry="1.5"
         sodipodi:rx="1.5"
         sodipodi:cy="33.5"
         sodipodi:cx="40.5"
         id="path4230"
         style="fill:#00aa00;fill-opacity:1;stroke:none"
         sodipodi:type="arc" />
      <path
         transform="matrix(0.87892575,0,0,0.87892575,-16.740385,926.54158)"
         d="M 42,33.5 C 42,34.328427 41.328427,35 40.5,35 39.671573,35 39,34.328427 39,33.5 39,32.671573 39.671573,32 40.5,32 c 0.828427,0 1.5,0.671573 1.5,1.5 z"
         sodipodi:ry="1.5"
         sodipodi:rx="1.5"
         sodipodi:cy="33.5"
         sodipodi:cx="40.5"
         id="path4230-3"
         style="fill:#00aa00;fill-opacity:1;stroke:none"
         sodipodi:type="arc" />
      <path
         transform="matrix(0.87892575,0,0,0.87892575,-3.5797514,926.54158)"
         d="M 42,33.5 C 42,34.328427 41.328427,35 40.5,35 39.671573,35 39,34.328427 39,33.5 39,32.671573 39.671573,32 40.5,32 c 0.828427,0 1.5,0.671573 1.5,1.5 z"
         sodipodi:ry="1.5"
         sodipodi:rx="1.5"
         sodipodi:cy="33.5"
         sodipodi:cx="40.5"
         id="path4230-8"
         style="fill:#00aa00;fill-opacity:1;stroke:none"
         sodipodi:type="arc" />
      <path
         transform="matrix(0.87892575,0,0,0.87892575,9.5808814,926.54158)"
         d="M 42,33.5 C 42,34.328427 41.328427,35 40.5,35 39.671573,35 39,34.328427 39,33.5 39,32.671573 39.671573,32 40.5,32 c 0.828427,0 1.5,0.671573 1.5,1.5 z"
         sodipodi:ry="1.5"
         sodipodi:rx="1.5"
         sodipodi:cy="33.5"
         sodipodi:cx="40.5"
         id="path4230-3-9"
         style="fill:#00aa00;fill-opacity:1;stroke:none"
         sodipodi:type="arc" />
      <path
         transform="matrix(0.87892575,0,0,0.87892575,22.741514,926.54158)"
         d="M 42,33.5 C 42,34.328427 41.328427,35 40.5,35 39.671573,35 39,34.328427 39,33.5 39,32.671573 39.671573,32 40.5,32 c 0.828427,0 1.5,0.671573 1.5,1.5 z"
         sodipodi:ry="1.5"
         sodipodi:rx="1.5"
         sodipodi:cy="33.5"
         sodipodi:cx="40.5"
         id="path4230-40"
         style="fill:#00aa00;fill-opacity:1;stroke:none"
         sodipodi:type="arc" />
      <path
         transform="matrix(0.87892575,0,0,0.87892575,35.902147,926.54158)"
         d="M 42,33.5 C 42,34.328427 41.328427,35 40.5,35 39.671573,35 39,34.328427 39,33.5 39,32.671573 39.671573,32 40.5,32 c 0.828427,0 1.5,0.671573 1.5,1.5 z"
         sodipodi:ry="1.5"
         sodipodi:rx="1.5"
         sodipodi:cy="33.5"
         sodipodi:cx="40.5"
         id="path4230-3-4"
         style="fill:#00aa00;fill-opacity:1;stroke:none"
         sodipodi:type="arc" />
      <path
         transform="matrix(0.87892575,0,0,0.87892575,49.062779,926.54158)"
         d="M 42,33.5 C 42,34.328427 41.328427,35 40.5,35 39.671573,35 39,34.328427 39,33.5 39,32.671573 39.671573,32 40.5,32 c 0.828427,0 1.5,0.671573 1.5,1.5 z"
         sodipodi:ry="1.5"
         sodipodi:rx="1.5"
         sodipodi:cy="33.5"
         sodipodi:cx="40.5"
         id="path4230-8-0"
         style="fill:#00aa00;fill-opacity:1;stroke:none"
         sodipodi:type="arc" />
      <path
         transform="matrix(0.87892575,0,0,0.87892575,62.223412,926.54158)"
         d="M 42,33.5 C 42,34.328427 41.328427,35 40.5,35 39.671573,35 39,34.328427 39,33.5 39,32.671573 39.671573,32 40.5,32 c 0.828427,0 1.5,0.671573 1.5,1.5 z"
         sodipodi:ry="1.5"
         sodipodi:rx="1.5"
         sodipodi:cy="33.5"
         sodipodi:cx="40.5"
         id="path4230-3-9-2"
         style="fill:#00aa00;fill-opacity:1;stroke:none"
         sodipodi:type="arc" />
      <path
         transform="matrix(0.87892575,0,0,0.87892575,-29.901017,939.70222)"
         d="M 42,33.5 C 42,34.328427 41.328427,35 40.5,35 39.671573,35 39,34.328427 39,33.5 39,32.671573 39.671573,32 40.5,32 c 0.828427,0 1.5,0.671573 1.5,1.5 z"
         sodipodi:ry="1.5"
         sodipodi:rx="1.5"
         sodipodi:cy="33.5"
         sodipodi:cx="40.5"
         id="path4230-26"
         style="fill:#00aa00;fill-opacity:1;stroke:none"
         sodipodi:type="arc" />
      <path
         transform="matrix(0.87892575,0,0,0.87892575,-16.740385,939.70222)"
         d="M 42,33.5 C 42,34.328427 41.328427,35 40.5,35 39.671573,35 39,34.328427 39,33.5 39,32.671573 39.671573,32 40.5,32 c 0.828427,0 1.5,0.671573 1.5,1.5 z"
         sodipodi:ry="1.5"
         sodipodi:rx="1.5"
         sodipodi:cy="33.5"
         sodipodi:cx="40.5"
         id="path4230-3-74"
         style="fill:#00aa00;fill-opacity:1;stroke:none"
         sodipodi:type="arc" />
      <path
         transform="matrix(0.87892575,0,0,0.87892575,-3.5797514,939.70222)"
         d="M 42,33.5 C 42,34.328427 41.328427,35 40.5,35 39.671573,35 39,34.328427 39,33.5 39,32.671573 39.671573,32 40.5,32 c 0.828427,0 1.5,0.671573 1.5,1.5 z"
         sodipodi:ry="1.5"
         sodipodi:rx="1.5"
         sodipodi:cy="33.5"
         sodipodi:cx="40.5"
         id="path4230-8-1"
         style="fill:#00aa00;fill-opacity:1;stroke:none"
         sodipodi:type="arc" />
      <path
         transform="matrix(0.87892575,0,0,0.87892575,9.5808814,939.70222)"
         d="M 42,33.5 C 42,34.328427 41.328427,35 40.5,35 39.671573,35 39,34.328427 39,33.5 39,32.671573 39.671573,32 40.5,32 c 0.828427,0 1.5,0.671573 1.5,1.5 z"
         sodipodi:ry="1.5"
         sodipodi:rx="1.5"
         sodipodi:cy="33.5"
         sodipodi:cx="40.5"
         id="path4230-3-9-5"
         style="fill:#00aa00;fill-opacity:1;stroke:none"
         sodipodi:type="arc" />
      <path
         transform="matrix(0.87892575,0,0,0.87892575,22.741514,939.70222)"
         d="M 42,33.5 C 42,34.328427 41.328427,35 40.5,35 39.671573,35 39,34.328427 39,33.5 39,32.671573 39.671573,32 40.5,32 c 0.828427,0 1.5,0.671573 1.5,1.5 z"
         sodipodi:ry="1.5"
         sodipodi:rx="1.5"
         sodipodi:cy="33.5"
         sodipodi:cx="40.5"
         id="path4230-40-2"
         style="fill:#00aa00;fill-opacity:1;stroke:none"
         sodipodi:type="arc" />
      <path
         transform="matrix(0.87892575,0,0,0.87892575,35.902147,939.70222)"
         d="M 42,33.5 C 42,34.328427 41.328427,35 40.5,35 39.671573,35 39,34.328427 39,33.5 39,32.671573 39.671573,32 40.5,32 c 0.828427,0 1.5,0.671573 1.5,1.5 z"
         sodipodi:ry="1.5"
         sodipodi:rx="1.5"
         sodipodi:cy="33.5"
         sodipodi:cx="40.5"
         id="path4230-3-4-1"
         style="fill:#00aa00;fill-opacity:1;stroke:none"
         sodipodi:type="arc" />
      <path
         transform="matrix(0.87892575,0,0,0.87892575,49.062779,939.70222)"
         d="M 42,33.5 C 42,34.328427 41.328427,35 40.5,35 39.671573,35 39,34.328427 39,33.5 39,32.671573 39.671573,32 40.5,32 c 0.828427,0 1.5,0.671573 1.5,1.5 z"
         sodipodi:ry="1.5"
         sodipodi:rx="1.5"
         sodipodi:cy="33.5"
         sodipodi:cx="40.5"
         id="path4230-8-0-6"
         style="fill:#00aa00;fill-opacity:1;stroke:none"
         sodipodi:type="arc" />
      <path
         transform="matrix(0.87892575,0,0,0.87892575,62.223412,939.70222)"
         d="M 42,33.5 C 42,34.328427 41.328427,35 40.5,35 39.671573,35 39,34.328427 39,33.5 39,32.671573 39.671573,32 40.5,32 c 0.828427,0 1.5,0.671573 1.5,1.5 z"
         sodipodi:ry="1.5"
         sodipodi:rx="1.5"
         sodipodi:cy="33.5"
         sodipodi:cx="40.5"
         id="path4230-3-9-2-5"
         style="fill:#00aa00;fill-opacity:1;stroke:none"
         sodipodi:type="arc" />
      <path
         transform="matrix(0.87892575,0,0,0.87892575,-29.901017,952.86284)"
         d="M 42,33.5 C 42,34.328427 41.328427,35 40.5,35 39.671573,35 39,34.328427 39,33.5 39,32.671573 39.671573,32 40.5,32 c 0.828427,0 1.5,0.671573 1.5,1.5 z"
         sodipodi:ry="1.5"
         sodipodi:rx="1.5"
         sodipodi:cy="33.5"
         sodipodi:cx="40.5"
         id="path4230-6"
         style="fill:#00aa00;fill-opacity:1;stroke:none"
         sodipodi:type="arc" />
      <path
         transform="matrix(0.87892575,0,0,0.87892575,-16.740385,952.86284)"
         d="M 42,33.5 C 42,34.328427 41.328427,35 40.5,35 39.671573,35 39,34.328427 39,33.5 39,32.671573 39.671573,32 40.5,32 c 0.828427,0 1.5,0.671573 1.5,1.5 z"
         sodipodi:ry="1.5"
         sodipodi:rx="1.5"
         sodipodi:cy="33.5"
         sodipodi:cx="40.5"
         id="path4230-3-0"
         style="fill:#00aa00;fill-opacity:1;stroke:none"
         sodipodi:type="arc" />
      <path
         transform="matrix(0.87892575,0,0,0.87892575,-3.5797514,952.86284)"
         d="M 42,33.5 C 42,34.328427 41.328427,35 40.5,35 39.671573,35 39,34.328427 39,33.5 39,32.671573 39.671573,32 40.5,32 c 0.828427,0 1.5,0.671573 1.5,1.5 z"
         sodipodi:ry="1.5"
         sodipodi:rx="1.5"
         sodipodi:cy="33.5"
         sodipodi:cx="40.5"
         id="path4230-8-2"
         style="fill:#00aa00;fill-opacity:1;stroke:none"
         sodipodi:type="arc" />
      <path
         transform="matrix(0.87892575,0,0,0.87892575,9.5808814,952.86284)"
         d="M 42,33.5 C 42,34.328427 41.328427,35 40.5,35 39.671573,35 39,34.328427 39,33.5 39,32.671573 39.671573,32 40.5,32 c 0.828427,0 1.5,0.671573 1.5,1.5 z"
         sodipodi:ry="1.5"
         sodipodi:rx="1.5"
         sodipodi:cy="33.5"
         sodipodi:cx="40.5"
         id="path4230-3-9-55"
         style="fill:#00aa00;fill-opacity:1;stroke:none"
         sodipodi:type="arc" />
      <path
         transform="matrix(0.87892575,0,0,0.87892575,22.741514,952.86284)"
         d="M 42,33.5 C 42,34.328427 41.328427,35 40.5,35 39.671573,35 39,34.328427 39,33.5 39,32.671573 39.671573,32 40.5,32 c 0.828427,0 1.5,0.671573 1.5,1.5 z"
         sodipodi:ry="1.5"
         sodipodi:rx="1.5"
         sodipodi:cy="33.5"
         sodipodi:cx="40.5"
         id="path4230-40-4"
         style="fill:#00aa00;fill-opacity:1;stroke:none"
         sodipodi:type="arc" />
      <path
         transform="matrix(0.87892575,0,0,0.87892575,35.902147,952.86284)"
         d="M 42,33.5 C 42,34.328427 41.328427,35 40.5,35 39.671573,35 39,34.328427 39,33.5 39,32.671573 39.671573,32 40.5,32 c 0.828427,0 1.5,0.671573 1.5,1.5 z"
         sodipodi:ry="1.5"
         sodipodi:rx="1.5"
         sodipodi:cy="33.5"
         sodipodi:cx="40.5"
         id="path4230-3-4-7"
         style="fill:#00aa00;fill-opacity:1;stroke:none"
         sodipodi:type="arc" />
      <path
         transform="matrix(0.87892575,0,0,0.87892575,49.062779,952.86284)"
         d="M 42,33.5 C 42,34.328427 41.328427,35 40.5,35 39.671573,35 39,34.328427 39,33.5 39,32.671573 39.671573,32 40.5,32 c 0.828427,0 1.5,0.671573 1.5,1.5 z"
         sodipodi:ry="1.5"
         sodipodi:rx="1.5"
         sodipodi:cy="33.5"
         sodipodi:cx="40.5"
         id="path4230-8-0-4"
         style="fill:#00aa00;fill-opacity:1;stroke:none"
         sodipodi:type="arc" />
      <path
         transform="matrix(0.87892575,0,0,0.87892575,62.223412,952.86284)"
         d="M 42,33.5 C 42,34.328427 41.328427,35 40.5,35 39.671573,35 39,34.328427 39,33.5 39,32.671573 39.671573,32 40.5,32 c 0.828427,0 1.5,0.671573 1.5,1.5 z"
         sodipodi:ry="1.5"
         sodipodi:rx="1.5"
         sodipodi:cy="33.5"
         sodipodi:cx="40.5"
         id="path4230-3-9-2-4"
         style="fill:#00aa00;fill-opacity:1;stroke:none"
         sodipodi:type="arc" />
      <path
         transform="matrix(0.87892575,0,0,0.87892575,-29.901017,966.02348)"
         d="M 42,33.5 C 42,34.328427 41.328427,35 40.5,35 39.671573,35 39,34.328427 39,33.5 39,32.671573 39.671573,32 40.5,32 c 0.828427,0 1.5,0.671573 1.5,1.5 z"
         sodipodi:ry="1.5"
         sodipodi:rx="1.5"
         sodipodi:cy="33.5"
         sodipodi:cx="40.5"
         id="path4230-9"
         style="fill:#00aa00;fill-opacity:1;stroke:none"
         sodipodi:type="arc" />
      <path
         transform="matrix(0.87892575,0,0,0.87892575,-16.740385,966.02348)"
         d="M 42,33.5 C 42,34.328427 41.328427,35 40.5,35 39.671573,35 39,34.328427 39,33.5 39,32.671573 39.671573,32 40.5,32 c 0.828427,0 1.5,0.671573 1.5,1.5 z"
         sodipodi:ry="1.5"
         sodipodi:rx="1.5"
         sodipodi:cy="33.5"
         sodipodi:cx="40.5"
         id="path4230-3-3"
         style="fill:#00aa00;fill-opacity:1;stroke:none"
         sodipodi:type="arc" />
      <path
         transform="matrix(0.87892575,0,0,0.87892575,-3.5797514,966.02348)"
         d="M 42,33.5 C 42,34.328427 41.328427,35 40.5,35 39.671573,35 39,34.328427 39,33.5 39,32.671573 39.671573,32 40.5,32 c 0.828427,0 1.5,0.671573 1.5,1.5 z"
         sodipodi:ry="1.5"
         sodipodi:rx="1.5"
         sodipodi:cy="33.5"
         sodipodi:cx="40.5"
         id="path4230-8-6"
         style="fill:#00aa00;fill-opacity:1;stroke:none"
         sodipodi:type="arc" />
      <path
         transform="matrix(0.87892575,0,0,0.87892575,9.5808814,966.02348)"
         d="M 42,33.5 C 42,34.328427 41.328427,35 40.5,35 39.671573,35 39,34.328427 39,33.5 39,32.671573 39.671573,32 40.5,32 c 0.828427,0 1.5,0.671573 1.5,1.5 z"
         sodipodi:ry="1.5"
         sodipodi:rx="1.5"
         sodipodi:cy="33.5"
         sodipodi:cx="40.5"
         id="path4230-3-9-20"
         style="fill:#00aa00;fill-opacity:1;stroke:none"
         sodipodi:type="arc" />
      <path
         transform="matrix(0.87892575,0,0,0.87892575,22.741514,966.02348)"
         d="M 42,33.5 C 42,34.328427 41.328427,35 40.5,35 39.671573,35 39,34.328427 39,33.5 39,32.671573 39.671573,32 40.5,32 c 0.828427,0 1.5,0.671573 1.5,1.5 z"
         sodipodi:ry="1.5"
         sodipodi:rx="1.5"
         sodipodi:cy="33.5"
         sodipodi:cx="40.5"
         id="path4230-40-1"
         style="fill:#00aa00;fill-opacity:1;stroke:none"
         sodipodi:type="arc" />
      <path
         transform="matrix(0.87892575,0,0,0.87892575,35.902147,966.02348)"
         d="M 42,33.5 C 42,34.328427 41.328427,35 40.5,35 39.671573,35 39,34.328427 39,33.5 39,32.671573 39.671573,32 40.5,32 c 0.828427,0 1.5,0.671573 1.5,1.5 z"
         sodipodi:ry="1.5"
         sodipodi:rx="1.5"
         sodipodi:cy="33.5"
         sodipodi:cx="40.5"
         id="path4230-3-4-2"
         style="fill:#00aa00;fill-opacity:1;stroke:none"
         sodipodi:type="arc" />
      <path
         transform="matrix(0.87892575,0,0,0.87892575,49.062779,966.02348)"
         d="M 42,33.5 C 42,34.328427 41.328427,35 40.5,35 39.671573,35 39,34.328427 39,33.5 39,32.671573 39.671573,32 40.5,32 c 0.828427,0 1.5,0.671573 1.5,1.5 z"
         sodipodi:ry="1.5"
         sodipodi:rx="1.5"
         sodipodi:cy="33.5"
         sodipodi:cx="40.5"
         id="path4230-8-0-5"
         style="fill:#00aa00;fill-opacity:1;stroke:none"
         sodipodi:type="arc" />
      <path
         transform="matrix(0.87892575,0,0,0.87892575,62.223412,966.02348)"
         d="M 42,33.5 C 42,34.328427 41.328427,35 40.5,35 39.671573,35 39,34.328427 39,33.5 39,32.671573 39.671573,32 40.5,32 c 0.828427,0 1.5,0.671573 1.5,1.5 z"
         sodipodi:ry="1.5"
         sodipodi:rx="1.5"
         sodipodi:cy="33.5"
         sodipodi:cx="40.5"
         id="path4230-3-9-2-57"
         style="fill:#00aa00;fill-opacity:1;stroke:none"
         sodipodi:type="arc" />
      <path
         transform="matrix(0.87892575,0,0,0.87892575,-29.901017,979.18411)"
         d="M 42,33.5 C 42,34.328427 41.328427,35 40.5,35 39.671573,35 39,34.328427 39,33.5 39,32.671573 39.671573,32 40.5,32 c 0.828427,0 1.5,0.671573 1.5,1.5 z"
         sodipodi:ry="1.5"
         sodipodi:rx="1.5"
         sodipodi:cy="33.5"
         sodipodi:cx="40.5"
         id="path4230-64"
         style="fill:#00aa00;fill-opacity:1;stroke:none"
         sodipodi:type="arc" />
      <path
         transform="matrix(0.87892575,0,0,0.87892575,-16.740385,979.18411)"
         d="M 42,33.5 C 42,34.328427 41.328427,35 40.5,35 39.671573,35 39,34.328427 39,33.5 39,32.671573 39.671573,32 40.5,32 c 0.828427,0 1.5,0.671573 1.5,1.5 z"
         sodipodi:ry="1.5"
         sodipodi:rx="1.5"
         sodipodi:cy="33.5"
         sodipodi:cx="40.5"
         id="path4230-3-5"
         style="fill:#00aa00;fill-opacity:1;stroke:none"
         sodipodi:type="arc" />
      <path
         transform="matrix(0.87892575,0,0,0.87892575,-3.5797514,979.18411)"
         d="M 42,33.5 C 42,34.328427 41.328427,35 40.5,35 39.671573,35 39,34.328427 39,33.5 39,32.671573 39.671573,32 40.5,32 c 0.828427,0 1.5,0.671573 1.5,1.5 z"
         sodipodi:ry="1.5"
         sodipodi:rx="1.5"
         sodipodi:cy="33.5"
         sodipodi:cx="40.5"
         id="path4230-8-19"
         style="fill:#00aa00;fill-opacity:1;stroke:none"
         sodipodi:type="arc" />
      <path
         transform="matrix(0.87892575,0,0,0.87892575,9.5808814,979.18411)"
         d="M 42,33.5 C 42,34.328427 41.328427,35 40.5,35 39.671573,35 39,34.328427 39,33.5 39,32.671573 39.671573,32 40.5,32 c 0.828427,0 1.5,0.671573 1.5,1.5 z"
         sodipodi:ry="1.5"
         sodipodi:rx="1.5"
         sodipodi:cy="33.5"
         sodipodi:cx="40.5"
         id="path4230-3-9-8"
         style="fill:#00aa00;fill-opacity:1;stroke:none"
         sodipodi:type="arc" />
      <path
         transform="matrix(0.87892575,0,0,0.87892575,22.741514,979.18411)"
         d="M 42,33.5 C 42,34.328427 41.328427,35 40.5,35 39.671573,35 39,34.328427 39,33.5 39,32.671573 39.671573,32 40.5,32 c 0.828427,0 1.5,0.671573 1.5,1.5 z"
         sodipodi:ry="1.5"
         sodipodi:rx="1.5"
         sodipodi:cy="33.5"
         sodipodi:cx="40.5"
         id="path4230-40-8"
         style="fill:#00aa00;fill-opacity:1;stroke:none"
         sodipodi:type="arc" />
      <path
         transform="matrix(0.87892575,0,0,0.87892575,35.902147,979.18411)"
         d="M 42,33.5 C 42,34.328427 41.328427,35 40.5,35 39.671573,35 39,34.328427 39,33.5 39,32.671573 39.671573,32 40.5,32 c 0.828427,0 1.5,0.671573 1.5,1.5 z"
         sodipodi:ry="1.5"
         sodipodi:rx="1.5"
         sodipodi:cy="33.5"
         sodipodi:cx="40.5"
         id="path4230-3-4-4"
         style="fill:#00aa00;fill-opacity:1;stroke:none"
         sodipodi:type="arc" />
      <path
         transform="matrix(0.87892575,0,0,0.87892575,49.062779,979.18411)"
         d="M 42,33.5 C 42,34.328427 41.328427,35 40.5,35 39.671573,35 39,34.328427 39,33.5 39,32.671573 39.671573,32 40.5,32 c 0.828427,0 1.5,0.671573 1.5,1.5 z"
         sodipodi:ry="1.5"
         sodipodi:rx="1.5"
         sodipodi:cy="33.5"
         sodipodi:cx="40.5"
         id="path4230-8-0-0"
         style="fill:#00aa00;fill-opacity:1;stroke:none"
         sodipodi:type="arc" />
      <path
         transform="matrix(0.87892575,0,0,0.87892575,62.223412,979.18411)"
         d="M 42,33.5 C 42,34.328427 41.328427,35 40.5,35 39.671573,35 39,34.328427 39,33.5 39,32.671573 39.671573,32 40.5,32 c 0.828427,0 1.5,0.671573 1.5,1.5 z"
         sodipodi:ry="1.5"
         sodipodi:rx="1.5"
         sodipodi:cy="33.5"
         sodipodi:cx="40.5"
         id="path4230-3-9-2-6"
         style="fill:#00aa00;fill-opacity:1;stroke:none"
         sodipodi:type="arc" />
      <path
         transform="matrix(0.87892575,0,0,0.87892575,-29.901017,992.34474)"
         d="M 42,33.5 C 42,34.328427 41.328427,35 40.5,35 39.671573,35 39,34.328427 39,33.5 39,32.671573 39.671573,32 40.5,32 c 0.828427,0 1.5,0.671573 1.5,1.5 z"
         sodipodi:ry="1.5"
         sodipodi:rx="1.5"
         sodipodi:cy="33.5"
         sodipodi:cx="40.5"
         id="path4230-1"
         style="fill:#00aa00;fill-opacity:1;stroke:none"
         sodipodi:type="arc" />
      <path
         transform="matrix(0.87892575,0,0,0.87892575,-16.740385,992.34474)"
         d="M 42,33.5 C 42,34.328427 41.328427,35 40.5,35 39.671573,35 39,34.328427 39,33.5 39,32.671573 39.671573,32 40.5,32 c 0.828427,0 1.5,0.671573 1.5,1.5 z"
         sodipodi:ry="1.5"
         sodipodi:rx="1.5"
         sodipodi:cy="33.5"
         sodipodi:cx="40.5"
         id="path4230-3-00"
         style="fill:#00aa00;fill-opacity:1;stroke:none"
         sodipodi:type="arc" />
      <path
         transform="matrix(0.87892575,0,0,0.87892575,-3.5797514,992.34474)"
         d="M 42,33.5 C 42,34.328427 41.328427,35 40.5,35 39.671573,35 39,34.328427 39,33.5 39,32.671573 39.671573,32 40.5,32 c 0.828427,0 1.5,0.671573 1.5,1.5 z"
         sodipodi:ry="1.5"
         sodipodi:rx="1.5"
         sodipodi:cy="33.5"
         sodipodi:cx="40.5"
         id="path4230-8-06"
         style="fill:#00aa00;fill-opacity:1;stroke:none"
         sodipodi:type="arc" />
      <path
         transform="matrix(0.87892575,0,0,0.87892575,9.5808814,992.34474)"
         d="M 42,33.5 C 42,34.328427 41.328427,35 40.5,35 39.671573,35 39,34.328427 39,33.5 39,32.671573 39.671573,32 40.5,32 c 0.828427,0 1.5,0.671573 1.5,1.5 z"
         sodipodi:ry="1.5"
         sodipodi:rx="1.5"
         sodipodi:cy="33.5"
         sodipodi:cx="40.5"
         id="path4230-3-9-59"
         style="fill:#00aa00;fill-opacity:1;stroke:none"
         sodipodi:type="arc" />
      <path
         transform="matrix(0.87892575,0,0,0.87892575,22.741514,992.34474)"
         d="M 42,33.5 C 42,34.328427 41.328427,35 40.5,35 39.671573,35 39,34.328427 39,33.5 39,32.671573 39.671573,32 40.5,32 c 0.828427,0 1.5,0.671573 1.5,1.5 z"
         sodipodi:ry="1.5"
         sodipodi:rx="1.5"
         sodipodi:cy="33.5"
         sodipodi:cx="40.5"
         id="path4230-40-6"
         style="fill:#00aa00;fill-opacity:1;stroke:none"
         sodipodi:type="arc" />
      <path
         transform="matrix(0.87892575,0,0,0.87892575,35.902147,992.34474)"
         d="M 42,33.5 C 42,34.328427 41.328427,35 40.5,35 39.671573,35 39,34.328427 39,33.5 39,32.671573 39.671573,32 40.5,32 c 0.828427,0 1.5,0.671573 1.5,1.5 z"
         sodipodi:ry="1.5"
         sodipodi:rx="1.5"
         sodipodi:cy="33.5"
         sodipodi:cx="40.5"
         id="path4230-3-4-8"
         style="fill:#00aa00;fill-opacity:1;stroke:none"
         sodipodi:type="arc" />
      <path
         transform="matrix(0.87892575,0,0,0.87892575,49.062779,992.34474)"
         d="M 42,33.5 C 42,34.328427 41.328427,35 40.5,35 39.671573,35 39,34.328427 39,33.5 39,32.671573 39.671573,32 40.5,32 c 0.828427,0 1.5,0.671573 1.5,1.5 z"
         sodipodi:ry="1.5"
         sodipodi:rx="1.5"
         sodipodi:cy="33.5"
         sodipodi:cx="40.5"
         id="path4230-8-0-50"
         style="fill:#00aa00;fill-opacity:1;stroke:none"
         sodipodi:type="arc" />
      <path
         transform="matrix(0.87892575,0,0,0.87892575,62.223412,992.34474)"
         d="M 42,33.5 C 42,34.328427 41.328427,35 40.5,35 39.671573,35 39,34.328427 39,33.5 39,32.671573 39.671573,32 40.5,32 c 0.828427,0 1.5,0.671573 1.5,1.5 z"
         sodipodi:ry="1.5"
         sodipodi:rx="1.5"
         sodipodi:cy="33.5"
         sodipodi:cx="40.5"
         id="path4230-3-9-2-0"
         style="fill:#00aa00;fill-opacity:1;stroke:none"
         sodipodi:type="arc" />
      <path
         transform="matrix(0.87892575,0,0,0.87892575,-29.901017,1005.5053)"
         d="M 42,33.5 C 42,34.328427 41.328427,35 40.5,35 39.671573,35 39,34.328427 39,33.5 39,32.671573 39.671573,32 40.5,32 c 0.828427,0 1.5,0.671573 1.5,1.5 z"
         sodipodi:ry="1.5"
         sodipodi:rx="1.5"
         sodipodi:cy="33.5"
         sodipodi:cx="40.5"
         id="path4230-2"
         style="fill:#00aa00;fill-opacity:1;stroke:none"
         sodipodi:type="arc" />
      <path
         transform="matrix(0.87892575,0,0,0.87892575,-16.740385,1005.5053)"
         d="M 42,33.5 C 42,34.328427 41.328427,35 40.5,35 39.671573,35 39,34.328427 39,33.5 39,32.671573 39.671573,32 40.5,32 c 0.828427,0 1.5,0.671573 1.5,1.5 z"
         sodipodi:ry="1.5"
         sodipodi:rx="1.5"
         sodipodi:cy="33.5"
         sodipodi:cx="40.5"
         id="path4230-3-8"
         style="fill:#00aa00;fill-opacity:1;stroke:none"
         sodipodi:type="arc" />
      <path
         transform="matrix(0.87892575,0,0,0.87892575,-3.5797514,1005.5053)"
         d="M 42,33.5 C 42,34.328427 41.328427,35 40.5,35 39.671573,35 39,34.328427 39,33.5 39,32.671573 39.671573,32 40.5,32 c 0.828427,0 1.5,0.671573 1.5,1.5 z"
         sodipodi:ry="1.5"
         sodipodi:rx="1.5"
         sodipodi:cy="33.5"
         sodipodi:cx="40.5"
         id="path4230-8-5"
         style="fill:#00aa00;fill-opacity:1;stroke:none"
         sodipodi:type="arc" />
      <path
         transform="matrix(0.87892575,0,0,0.87892575,9.5808814,1005.5053)"
         d="M 42,33.5 C 42,34.328427 41.328427,35 40.5,35 39.671573,35 39,34.328427 39,33.5 39,32.671573 39.671573,32 40.5,32 c 0.828427,0 1.5,0.671573 1.5,1.5 z"
         sodipodi:ry="1.5"
         sodipodi:rx="1.5"
         sodipodi:cy="33.5"
         sodipodi:cx="40.5"
         id="path4230-3-9-1"
         style="fill:#00aa00;fill-opacity:1;stroke:none"
         sodipodi:type="arc" />
      <path
         transform="matrix(0.87892575,0,0,0.87892575,22.741514,1005.5053)"
         d="M 42,33.5 C 42,34.328427 41.328427,35 40.5,35 39.671573,35 39,34.328427 39,33.5 39,32.671573 39.671573,32 40.5,32 c 0.828427,0 1.5,0.671573 1.5,1.5 z"
         sodipodi:ry="1.5"
         sodipodi:rx="1.5"
         sodipodi:cy="33.5"
         sodipodi:cx="40.5"
         id="path4230-40-89"
         style="fill:#00aa00;fill-opacity:1;stroke:none"
         sodipodi:type="arc" />
      <path
         transform="matrix(0.87892575,0,0,0.87892575,35.902147,1005.5053)"
         d="M 42,33.5 C 42,34.328427 41.328427,35 40.5,35 39.671573,35 39,34.328427 39,33.5 39,32.671573 39.671573,32 40.5,32 c 0.828427,0 1.5,0.671573 1.5,1.5 z"
         sodipodi:ry="1.5"
         sodipodi:rx="1.5"
         sodipodi:cy="33.5"
         sodipodi:cx="40.5"
         id="path4230-3-4-0"
         style="fill:#00aa00;fill-opacity:1;stroke:none"
         sodipodi:type="arc" />
      <path
         transform="matrix(0.87892575,0,0,0.87892575,49.062779,1005.5053)"
         d="M 42,33.5 C 42,34.328427 41.328427,35 40.5,35 39.671573,35 39,34.328427 39,33.5 39,32.671573 39.671573,32 40.5,32 c 0.828427,0 1.5,0.671573 1.5,1.5 z"
         sodipodi:ry="1.5"
         sodipodi:rx="1.5"
         sodipodi:cy="33.5"
         sodipodi:cx="40.5"
         id="path4230-8-0-46"
         style="fill:#00aa00;fill-opacity:1;stroke:none"
         sodipodi:type="arc" />
      <path
         transform="matrix(0.87892575,0,0,0.87892575,62.223412,1005.5053)"
         d="M 42,33.5 C 42,34.328427 41.328427,35 40.5,35 39.671573,35 39,34.328427 39,33.5 39,32.671573 39.671573,32 40.5,32 c 0.828427,0 1.5,0.671573 1.5,1.5 z"
         sodipodi:ry="1.5"
         sodipodi:rx="1.5"
         sodipodi:cy="33.5"
         sodipodi:cx="40.5"
         id="path4230-3-9-2-1"
         style="fill:#00aa00;fill-opacity:1;stroke:none"
         sodipodi:type="arc" />
      <path
         transform="matrix(0.87892575,0,0,0.87892575,-29.901017,1018.666)"
         d="M 42,33.5 C 42,34.328427 41.328427,35 40.5,35 39.671573,35 39,34.328427 39,33.5 39,32.671573 39.671573,32 40.5,32 c 0.828427,0 1.5,0.671573 1.5,1.5 z"
         sodipodi:ry="1.5"
         sodipodi:rx="1.5"
         sodipodi:cy="33.5"
         sodipodi:cx="40.5"
         id="path4230-61"
         style="fill:#00aa00;fill-opacity:1;stroke:none"
         sodipodi:type="arc" />
      <path
         transform="matrix(0.87892575,0,0,0.87892575,-16.740385,1018.666)"
         d="M 42,33.5 C 42,34.328427 41.328427,35 40.5,35 39.671573,35 39,34.328427 39,33.5 39,32.671573 39.671573,32 40.5,32 c 0.828427,0 1.5,0.671573 1.5,1.5 z"
         sodipodi:ry="1.5"
         sodipodi:rx="1.5"
         sodipodi:cy="33.5"
         sodipodi:cx="40.5"
         id="path4230-3-7"
         style="fill:#00aa00;fill-opacity:1;stroke:none"
         sodipodi:type="arc" />
      <path
         transform="matrix(0.87892575,0,0,0.87892575,-3.5797514,1018.666)"
         d="M 42,33.5 C 42,34.328427 41.328427,35 40.5,35 39.671573,35 39,34.328427 39,33.5 39,32.671573 39.671573,32 40.5,32 c 0.828427,0 1.5,0.671573 1.5,1.5 z"
         sodipodi:ry="1.5"
         sodipodi:rx="1.5"
         sodipodi:cy="33.5"
         sodipodi:cx="40.5"
         id="path4230-8-68"
         style="fill:#00aa00;fill-opacity:1;stroke:none"
         sodipodi:type="arc" />
      <path
         transform="matrix(0.87892575,0,0,0.87892575,9.5808814,1018.666)"
         d="M 42,33.5 C 42,34.328427 41.328427,35 40.5,35 39.671573,35 39,34.328427 39,33.5 39,32.671573 39.671573,32 40.5,32 c 0.828427,0 1.5,0.671573 1.5,1.5 z"
         sodipodi:ry="1.5"
         sodipodi:rx="1.5"
         sodipodi:cy="33.5"
         sodipodi:cx="40.5"
         id="path4230-3-9-23"
         style="fill:#00aa00;fill-opacity:1;stroke:none"
         sodipodi:type="arc" />
      <path
         transform="matrix(0.87892575,0,0,0.87892575,22.741514,1018.666)"
         d="M 42,33.5 C 42,34.328427 41.328427,35 40.5,35 39.671573,35 39,34.328427 39,33.5 39,32.671573 39.671573,32 40.5,32 c 0.828427,0 1.5,0.671573 1.5,1.5 z"
         sodipodi:ry="1.5"
         sodipodi:rx="1.5"
         sodipodi:cy="33.5"
         sodipodi:cx="40.5"
         id="path4230-40-14"
         style="fill:#00aa00;fill-opacity:1;stroke:none"
         sodipodi:type="arc" />
      <path
         transform="matrix(0.87892575,0,0,0.87892575,35.902147,1018.666)"
         d="M 42,33.5 C 42,34.328427 41.328427,35 40.5,35 39.671573,35 39,34.328427 39,33.5 39,32.671573 39.671573,32 40.5,32 c 0.828427,0 1.5,0.671573 1.5,1.5 z"
         sodipodi:ry="1.5"
         sodipodi:rx="1.5"
         sodipodi:cy="33.5"
         sodipodi:cx="40.5"
         id="path4230-3-4-3"
         style="fill:#00aa00;fill-opacity:1;stroke:none"
         sodipodi:type="arc" />
      <path
         transform="matrix(0.87892575,0,0,0.87892575,49.062779,1018.666)"
         d="M 42,33.5 C 42,34.328427 41.328427,35 40.5,35 39.671573,35 39,34.328427 39,33.5 39,32.671573 39.671573,32 40.5,32 c 0.828427,0 1.5,0.671573 1.5,1.5 z"
         sodipodi:ry="1.5"
         sodipodi:rx="1.5"
         sodipodi:cy="33.5"
         sodipodi:cx="40.5"
         id="path4230-8-0-2"
         style="fill:#00aa00;fill-opacity:1;stroke:none"
         sodipodi:type="arc" />
      <path
         transform="matrix(0.87892575,0,0,0.87892575,62.223412,1018.666)"
         d="M 42,33.5 C 42,34.328427 41.328427,35 40.5,35 39.671573,35 39,34.328427 39,33.5 39,32.671573 39.671573,32 40.5,32 c 0.828427,0 1.5,0.671573 1.5,1.5 z"
         sodipodi:ry="1.5"
         sodipodi:rx="1.5"
         sodipodi:cy="33.5"
         sodipodi:cx="40.5"
         id="path4230-3-9-2-2"
         style="fill:#00aa00;fill-opacity:1;stroke:none"
         sodipodi:type="arc" />
    </g>
  </g>
</svg>
